<?xml version="1.0" standalone="no"?>
<!DOCTYPE svg PUBLIC "-//W3C//DTD SVG 20010904//EN"
 "http://www.w3.org/TR/2001/REC-SVG-20010904/DTD/svg10.dtd">
<svg version="1.0" xmlns="http://www.w3.org/2000/svg"
 width="2421.000000pt" height="2421.000000pt" viewBox="0 0 2421.000000 2421.000000"
 preserveAspectRatio="xMidYMid meet">
<g transform="translate(0.000000,2421.000000) scale(0.100000,-0.100000)"
fill="#000000" stroke="none">
<path d="M11665 23424 c-11 -2 -207 -9 -435 -15 -448 -11 -676 -21 -950 -39
-96 -6 -238 -15 -315 -20 -244 -15 -404 -29 -735 -61 -242 -23 -559 -57 -730
-78 -41 -6 -115 -15 -165 -21 -186 -22 -359 -45 -462 -60 -183 -26 -223 -31
-298 -40 -44 -5 -105 -14 -135 -21 -30 -6 -80 -15 -110 -20 -30 -5 -82 -13
-115 -19 -33 -5 -87 -14 -120 -20 -33 -5 -87 -14 -120 -20 -33 -5 -89 -14
-125 -19 -36 -5 -110 -19 -165 -31 -55 -11 -125 -25 -156 -30 -32 -5 -77 -14
-100 -20 -58 -15 -110 -26 -189 -39 -36 -7 -85 -18 -110 -25 -25 -8 -92 -24
-150 -36 -58 -12 -114 -25 -125 -30 -11 -4 -83 -22 -160 -40 -77 -18 -165 -41
-196 -51 -30 -10 -63 -19 -72 -19 -9 0 -43 -8 -74 -19 -32 -10 -85 -26 -118
-36 -180 -52 -281 -135 -321 -265 -4 -14 -11 -185 -15 -380 -7 -333 -12 -410
-39 -585 -20 -135 -54 -321 -70 -393 -6 -23 -10 -55 -10 -71 0 -16 -7 -56 -15
-88 -8 -32 -19 -92 -24 -133 -24 -185 -41 -233 -91 -260 -12 -6 -339 -10 -917
-10 -909 0 -1015 -4 -1158 -39 -134 -33 -176 -43 -225 -57 -30 -9 -68 -22 -85
-29 -16 -7 -59 -23 -95 -35 -74 -26 -324 -150 -386 -192 -23 -15 -45 -28 -48
-28 -11 0 -227 -160 -313 -232 -223 -186 -462 -453 -580 -648 -56 -92 -157
-297 -172 -350 -7 -25 -17 -54 -21 -65 -31 -80 -60 -253 -68 -405 l-7 -125
-76 -155 c-86 -177 -112 -236 -129 -300 -7 -25 -19 -63 -27 -85 -8 -21 -26
-96 -41 -165 -25 -121 -26 -135 -26 -465 1 -187 8 -538 17 -780 9 -242 22
-582 27 -755 13 -375 46 -1336 60 -1715 9 -251 14 -404 40 -1230 6 -170 14
-400 20 -510 5 -110 14 -373 20 -585 16 -564 49 -1546 70 -2060 5 -140 15
-424 20 -630 16 -569 29 -909 41 -1075 5 -82 14 -379 18 -660 5 -280 11 -548
15 -595 3 -47 8 -188 11 -315 3 -126 10 -327 15 -445 5 -118 17 -431 25 -695
8 -264 20 -572 25 -685 5 -113 14 -374 20 -580 26 -926 28 -954 76 -1148 20
-81 70 -235 96 -292 95 -214 207 -398 287 -474 17 -17 31 -34 31 -39 0 -12
170 -181 235 -234 148 -120 391 -251 587 -317 139 -46 268 -71 473 -91 155
-14 985 -15 9715 -12 8777 3 9552 5 9635 20 205 37 402 100 553 176 168 85
308 177 373 246 24 26 62 59 84 75 22 15 68 56 101 91 244 253 422 607 483
964 20 118 31 305 36 650 3 193 10 376 16 408 7 42 7 78 -2 132 -10 60 -10 85
0 123 6 27 14 131 16 233 2 101 7 245 10 319 6 136 16 470 18 590 0 36 -3 92
-7 126 -7 47 -5 72 8 110 13 39 16 100 18 304 1 140 5 265 10 278 4 12 8 161
9 330 1 169 5 321 10 338 5 16 11 187 12 380 2 192 7 355 11 362 4 8 10 111
12 230 2 119 8 287 14 372 5 85 12 288 15 450 3 162 9 358 14 435 6 77 7 172
4 210 -3 39 0 88 5 110 6 22 11 114 12 205 0 91 5 253 10 360 12 227 40 1048
41 1195 1 55 5 179 10 275 5 96 13 315 19 485 6 171 15 441 20 600 6 160 26
763 45 1340 19 578 44 1325 55 1660 50 1496 58 1808 49 1965 -11 172 -35 308
-78 432 -16 46 -50 144 -76 218 -69 195 -131 419 -185 665 -66 301 -209 590
-421 852 -81 101 -303 322 -399 399 -403 321 -851 520 -1290 574 -52 6 -422
10 -975 10 -489 0 -907 3 -928 7 -74 12 -77 22 -150 463 -36 217 -71 433 -76
480 -6 47 -18 144 -27 215 -8 72 -19 274 -23 450 -9 353 -10 355 -76 433 -67
77 -130 104 -475 200 -256 71 -319 87 -595 148 -442 97 -1068 217 -1335 255
-36 5 -72 11 -80 14 -42 13 -892 128 -1135 155 -154 16 -323 35 -375 40 -52 6
-144 15 -205 20 -60 5 -157 14 -215 19 -416 38 -1162 81 -1745 101 -320 11
-1378 22 -1410 14z m580 -1294 c88 -10 283 -54 314 -70 9 -5 47 -21 85 -35
205 -79 319 -99 511 -92 158 7 251 26 390 82 153 62 231 84 328 95 199 23 352
-13 647 -152 47 -22 103 -47 125 -55 22 -9 45 -20 51 -25 22 -16 150 -57 218
-69 124 -21 291 -1 376 45 14 8 66 27 115 42 84 27 101 29 250 28 175 0 242
-14 435 -88 47 -18 126 -45 175 -60 50 -16 101 -32 115 -37 42 -14 418 -104
520 -124 41 -8 424 -103 555 -138 50 -13 180 -48 290 -77 110 -29 259 -68 330
-88 72 -19 177 -47 235 -63 258 -68 282 -77 327 -124 37 -37 43 -49 43 -86 0
-24 7 -66 16 -94 9 -27 20 -79 26 -115 5 -36 14 -90 19 -120 15 -88 31 -282
24 -289 -8 -7 -13271 -14 -13302 -6 -16 4 -23 13 -23 28 0 35 22 169 80 485
32 174 35 185 73 220 26 24 340 105 1372 352 473 113 645 158 845 217 85 25
247 87 325 123 184 86 333 117 488 100 94 -11 144 -23 207 -52 167 -77 312
-100 462 -75 120 21 195 47 368 130 287 137 407 172 595 171 120 -1 242 -23
320 -59 74 -33 191 -76 262 -96 99 -27 311 -37 421 -20 84 13 252 60 298 84
43 21 178 63 265 82 154 33 281 41 424 25z m-6811 -503 c42 -42 46 -61 46
-199 0 -267 -25 -427 -201 -1318 -59 -297 -79 -375 -114 -444 -45 -88 -129
-144 -191 -127 -28 7 -124 89 -124 105 1 6 10 22 20 35 l20 23 65 -26 c36 -14
67 -26 69 -26 2 0 16 21 31 48 25 44 52 152 90 366 16 88 21 119 90 486 117
630 135 750 135 900 0 107 4 148 15 170 19 36 20 36 49 7z m13392 2 c17 -19
19 -40 21 -217 3 -321 33 -523 178 -1187 25 -115 57 -264 70 -330 19 -95 56
-205 82 -244 1 -2 28 6 59 18 70 27 96 27 112 0 12 -19 10 -25 -20 -57 -58
-62 -72 -71 -111 -72 -48 0 -106 29 -142 72 -57 67 -54 57 -176 723 -184 1009
-186 1021 -172 1162 11 97 14 110 38 130 32 28 37 28 61 2z m-13844 -424 c1
-275 -79 -718 -158 -879 -29 -59 -60 -103 -68 -96 -4 5 51 351 123 775 12 66
30 179 41 250 30 190 30 189 47 135 10 -30 15 -92 15 -185z m14329 -86 c72
-423 149 -885 149 -893 0 -14 -22 7 -45 43 -91 146 -186 612 -187 926 -1 124
14 237 28 222 3 -3 28 -137 55 -298z m-14150 80 c52 -16 89 -58 96 -106 3 -24
-5 -84 -21 -154 -14 -63 -36 -193 -50 -289 -27 -188 -39 -218 -91 -232 -31 -8
-113 0 -120 13 -4 6 100 654 121 752 6 30 11 32 65 16z m13953 -11 c6 -27 126
-743 126 -750 0 -11 -94 -29 -121 -23 -47 11 -68 52 -85 172 -8 59 -31 192
-51 295 -22 118 -33 200 -29 221 8 41 41 74 93 92 53 19 62 18 67 -7z m-14222
-1052 c104 -24 149 -73 147 -161 -2 -101 -4 -103 -148 -157 -105 -39 -140 -69
-148 -125 -3 -23 -3 -54 1 -68 4 -15 50 -68 104 -121 84 -82 93 -94 67 -88
-56 11 -133 54 -169 94 -49 55 -73 106 -97 207 -11 49 -22 96 -25 106 -5 17
-39 24 -48 9 -2 -4 -16 -77 -31 -162 -14 -85 -31 -179 -36 -208 l-11 -53 -802
3 -802 3 -41 27 c-25 16 -49 44 -63 73 -41 84 -11 158 115 294 97 105 151 133
328 176 254 62 598 121 887 154 130 15 707 13 772 -3z m14733 -1 c465 -20
1107 -71 1248 -100 89 -18 182 -61 337 -155 186 -112 220 -155 220 -274 -1
-74 -21 -118 -73 -160 l-39 -31 -772 -3 c-490 -2 -783 1 -799 7 -42 16 -58 52
-67 153 -5 51 -16 131 -25 178 -8 47 -15 86 -15 88 0 1 -11 2 -23 2 -22 0 -26
-10 -51 -102 -36 -136 -67 -202 -117 -249 -41 -38 -141 -80 -156 -65 -4 3 33
47 82 96 86 87 88 90 93 143 4 48 1 60 -23 91 -28 36 -56 50 -181 86 -71 20
-71 20 -84 65 -16 56 -8 129 17 163 48 64 103 83 218 77 39 -3 133 -7 210 -10z
m-7207 -281 c18 -12 22 -23 22 -68 0 -34 -5 -58 -14 -65 -10 -8 -103 -11 -325
-11 -352 2 -331 -3 -331 83 0 49 13 66 60 76 17 3 151 5 298 3 214 -3 271 -6
290 -18z m566 -265 l26 -31 0 -270 c0 -304 -5 -329 -63 -346 -18 -6 -90 -9
-162 -8 l-130 2 -2 248 c-1 278 -2 282 -74 319 -31 16 -70 17 -484 15 -411 -3
-453 -5 -478 -21 -60 -39 -61 -48 -59 -306 1 -130 -2 -242 -7 -250 -7 -11 -35
-13 -135 -9 l-127 4 -42 42 -42 42 0 276 0 276 28 24 28 24 849 0 848 0 26
-31z m-556 -446 l-3 -278 -322 -2 -323 -2 0 280 0 279 325 0 325 0 -2 -277z
m-1308 -19 c0 -110 3 -133 22 -170 44 -89 43 -89 323 -118 138 -15 286 -31
330 -36 257 -31 552 -23 930 26 268 35 264 34 301 66 43 38 62 91 73 208 5 52
14 106 19 120 11 29 8 47 47 -285 14 -121 28 -235 32 -252 l5 -33 -1096 0
-1096 0 5 38 c12 83 35 283 45 377 17 172 20 185 41 185 18 0 19 -9 19 -126z
m-183 -65 c24 -11 43 -24 43 -28 0 -10 -49 -54 -85 -77 -28 -19 -144 -19
-4400 -24 l-4370 -5 -110 -22 c-228 -45 -390 -99 -560 -187 -100 -52 -222
-129 -260 -163 -11 -10 -37 -31 -58 -47 -117 -87 -295 -298 -389 -461 -108
-189 -184 -403 -222 -625 -36 -204 -38 -297 -27 -900 21 -1118 48 -2670 71
-4145 30 -1892 37 -2501 29 -2509 -5 -6 -9 2 -9 20 0 41 -27 893 -40 1229 -5
149 -12 353 -15 455 -3 102 -10 307 -15 455 -6 149 -15 407 -20 575 -30 901
-86 2509 -120 3435 -5 149 -15 412 -21 585 -22 596 -17 719 36 945 183 776
868 1403 1630 1494 50 6 101 13 115 15 14 2 1989 4 4389 5 l4365 1 43 -21z
m11273 -6 c242 -49 386 -96 561 -183 107 -54 230 -127 276 -164 120 -97 210
-175 264 -232 294 -309 474 -686 535 -1119 19 -138 16 -436 -10 -1105 -16
-401 -42 -1160 -76 -2240 -29 -905 -48 -1477 -70 -2090 -11 -294 -26 -728 -35
-965 -8 -236 -17 -450 -18 -475 -2 -25 -4 322 -5 770 -2 736 8 1500 38 3100
54 2878 54 2839 19 3060 -36 230 -135 491 -267 700 -125 199 -362 429 -569
553 -244 147 -571 251 -825 262 -62 3 -2055 7 -4428 10 -4147 5 -4315 6 -4332
23 -11 10 -21 40 -25 70 l-6 52 4434 -3 4434 -3 105 -21z m-325 -2069 c132
-32 202 -82 232 -168 16 -46 18 -91 16 -486 -3 -498 -40 -2874 -83 -5325 -5
-319 -21 -1239 -35 -2045 -94 -5496 -101 -5868 -119 -5947 -26 -119 -88 -188
-199 -222 -47 -15 -882 -16 -9532 -19 -6605 -2 -9505 1 -9561 8 -113 14 -166
35 -214 81 -69 67 -87 141 -95 384 -3 99 -12 635 -21 1190 -21 1433 -60 3809
-89 5460 -30 1674 -45 2557 -60 3420 -8 484 -19 1114 -25 1400 -33 1768 -35
2019 -16 2088 34 126 117 185 276 196 47 3 4443 5 9770 4 8990 -2 9690 -4
9755 -19z m1740 -7132 c-13 -13 -14 16 -7 198 l7 195 3 -194 c1 -107 0 -196
-3 -199z"/>
<path d="M3875 19860 c-283 -19 -578 -77 -773 -152 -97 -38 -222 -110 -229
-134 -6 -17 138 3 209 30 34 13 101 40 148 59 48 20 126 42 180 51 150 25 604
69 835 81 61 3 133 8 160 12 45 5 48 7 25 15 -92 35 -338 52 -555 38z"/>
<path d="M19780 19853 l-45 -27 50 -12 c49 -13 196 -25 535 -44 402 -23 617
-67 837 -171 85 -40 101 -43 166 -33 30 5 37 11 37 29 0 25 -10 30 -185 94
-217 80 -322 110 -470 136 -126 22 -573 55 -740 55 -134 0 -142 -1 -185 -27z"/>
<path d="M11350 13335 c-8 -2 -49 -9 -90 -15 -310 -51 -584 -256 -815 -610
-64 -98 -174 -328 -219 -460 -73 -210 -126 -458 -158 -740 -19 -175 -16 -716
6 -910 51 -462 152 -830 304 -1110 232 -429 508 -659 897 -747 101 -23 124
-25 285 -20 185 5 252 18 395 72 239 90 431 259 589 518 156 256 232 542 243
917 5 185 4 209 -12 240 -24 47 -43 59 -91 60 -44 0 -78 -24 -95 -67 -5 -13
-9 -84 -9 -156 -1 -176 -16 -375 -36 -467 -62 -287 -163 -493 -323 -659 -164
-171 -333 -253 -580 -281 -234 -27 -457 25 -642 151 -35 23 -69 48 -75 53 -6
6 -26 25 -45 41 -19 17 -61 62 -95 100 -171 198 -306 476 -389 805 -131 514
-149 1238 -45 1791 83 438 251 799 480 1030 148 149 272 221 455 265 103 25
306 23 405 -4 323 -87 576 -350 673 -697 54 -192 68 -314 76 -675 6 -256 10
-312 25 -346 45 -107 196 -75 196 41 0 23 -7 138 -17 256 -16 217 -24 1038
-13 1369 5 132 3 149 -14 175 -28 44 -46 54 -91 55 -57 0 -82 -21 -101 -86
-15 -51 -15 -75 0 -287 23 -330 24 -318 -25 -222 -80 157 -154 260 -265 365
-189 180 -358 249 -624 255 -80 2 -152 2 -160 0z"/>
<path d="M4014 13270 c-31 -12 -54 -49 -54 -86 0 -82 27 -94 211 -94 133 0
145 -2 184 -25 77 -44 121 -135 176 -360 17 -71 67 -265 111 -430 88 -331 128
-487 153 -585 9 -36 39 -148 67 -250 27 -102 63 -237 80 -300 54 -211 76 -294
131 -500 30 -113 78 -295 107 -405 28 -110 60 -229 70 -265 11 -36 40 -146 65
-245 26 -99 71 -270 100 -380 30 -110 68 -252 85 -316 34 -133 50 -175 87
-231 48 -71 118 -88 173 -42 55 47 76 100 144 364 24 96 71 276 104 400 33
124 85 322 116 440 31 118 69 265 85 325 16 61 46 173 66 250 103 398 137 527
156 595 11 41 38 145 60 230 22 85 53 205 69 265 16 61 45 171 65 245 38 147
111 426 174 670 93 362 122 441 175 492 49 46 75 52 234 58 l154 5 25 29 c21
25 24 37 20 73 -9 81 -76 101 -234 69 -201 -41 -568 -47 -773 -11 -118 20
-231 30 -262 21 -38 -10 -59 -32 -68 -69 -10 -45 11 -94 45 -107 15 -6 119
-10 233 -10 231 0 250 -5 293 -72 18 -29 20 -44 15 -118 -2 -47 -18 -137 -34
-200 -37 -141 -142 -552 -257 -1005 -105 -412 -161 -630 -214 -835 -77 -301
-161 -629 -245 -960 -138 -546 -207 -815 -212 -819 -5 -6 -5 -7 -99 369 -48
190 -107 424 -131 520 -25 96 -70 270 -99 385 -30 116 -72 282 -95 370 -23 88
-77 302 -121 475 -109 428 -239 937 -310 1215 -33 127 -74 298 -92 382 -30
143 -31 154 -17 195 12 34 25 48 60 68 42 23 56 25 235 30 236 7 245 10 245
105 0 35 -5 48 -27 65 -24 19 -37 21 -103 17 -41 -2 -129 -14 -195 -27 -101
-20 -152 -24 -315 -24 -169 0 -216 4 -346 27 -155 28 -232 32 -270 17z"/>
<path d="M16203 13270 c-29 -12 -43 -40 -43 -90 0 -31 6 -47 26 -65 27 -25 29
-25 226 -25 216 0 230 -3 279 -57 28 -31 52 -83 71 -153 15 -55 24 -3255 10
-3545 -10 -201 -24 -252 -84 -306 -60 -53 -104 -59 -338 -45 -116 7 -127 6
-157 -13 -30 -19 -33 -25 -33 -70 0 -116 67 -131 395 -85 254 35 366 35 665 0
279 -33 343 -32 377 8 25 29 31 83 13 117 -23 42 -66 52 -175 43 -55 -4 -145
-8 -201 -9 -95 0 -103 2 -138 28 -46 36 -64 63 -83 129 -13 45 -16 160 -20
733 -3 374 -1 690 4 702 4 12 37 52 73 90 36 38 92 97 125 133 32 36 95 103
140 150 44 47 130 139 190 205 136 148 213 230 296 318 l64 68 132 -268 c72
-147 227 -461 344 -698 116 -236 244 -497 284 -580 40 -82 148 -303 240 -490
141 -286 169 -349 172 -395 5 -50 2 -58 -22 -82 -35 -36 -116 -52 -215 -44
-208 17 -240 18 -275 12 -105 -20 -118 -149 -19 -186 40 -16 117 -12 299 15
307 45 490 43 823 -5 161 -24 214 -25 252 -5 35 18 50 43 50 85 0 80 -43 100
-211 100 -68 0 -137 -5 -155 -12 -26 -9 -41 -8 -85 6 -75 25 -133 76 -196 173
-47 72 -267 508 -546 1083 -80 166 -238 489 -424 870 -197 402 -253 528 -253
570 0 24 23 73 52 110 16 20 78 89 193 214 121 133 243 264 255 276 8 8 37 40
64 70 28 30 104 114 171 185 67 72 141 153 165 180 149 167 298 298 397 349
48 24 62 26 176 26 109 0 127 3 149 20 53 41 42 126 -19 155 -41 20 -116 17
-278 -8 -309 -49 -535 -47 -812 9 -93 18 -186 18 -223 -1 -54 -28 -52 -122 3
-156 29 -17 52 -19 240 -19 166 0 214 -3 237 -15 37 -19 50 -43 50 -91 0 -65
-53 -139 -275 -379 -51 -55 -112 -122 -136 -150 -24 -27 -73 -81 -109 -120
-36 -38 -99 -108 -140 -154 -41 -46 -88 -98 -105 -116 -27 -29 -121 -132 -250
-274 -27 -31 -73 -80 -101 -111 -29 -30 -72 -77 -95 -105 -24 -27 -73 -81
-109 -120 -36 -38 -99 -108 -140 -154 -41 -46 -88 -98 -105 -116 -16 -18 -66
-72 -110 -121 -44 -49 -103 -114 -131 -144 -28 -30 -59 -65 -70 -77 -10 -13
-22 -23 -26 -23 -11 0 -10 1784 1 1955 13 193 39 249 136 292 32 14 79 18 247
23 201 5 207 6 232 29 35 33 36 89 2 128 -23 27 -28 28 -108 28 -45 -1 -146
-11 -223 -23 -272 -43 -613 -38 -910 14 -90 16 -140 17 -172 4z"/>
<path d="M8193 9345 c-62 -31 -98 -82 -118 -167 -58 -245 54 -458 240 -458 96
0 176 57 224 159 24 51 26 67 26 176 0 111 -2 124 -27 171 -69 131 -218 182
-345 119z"/>
<path d="M14438 9358 c-21 -6 -38 -14 -38 -19 0 -5 -5 -9 -11 -9 -20 0 -65
-61 -85 -114 -29 -77 -27 -263 2 -327 70 -150 207 -208 334 -141 63 32 112 98
136 180 24 80 16 232 -15 291 -67 129 -180 177 -323 139z"/>
<path d="M8387 7075 c-94 -33 -176 -137 -224 -280 -22 -68 -27 -102 -31 -230
-5 -166 6 -248 45 -360 64 -176 173 -265 326 -265 182 0 317 171 305 385 -3
52 -6 60 -23 60 -18 0 -21 -9 -28 -84 -10 -115 -31 -181 -73 -230 -113 -132
-298 -114 -398 37 -61 92 -88 195 -94 355 -7 209 21 345 94 455 108 163 317
155 400 -15 23 -46 28 -73 34 -169 6 -114 15 -142 44 -131 12 5 14 38 10 231
-2 123 -4 232 -4 240 0 10 -9 16 -25 16 -24 0 -25 -2 -25 -77 l-1 -78 -21 35
c-28 46 -80 89 -126 106 -48 17 -137 17 -185 -1z"/>
<path d="M11590 7072 c-67 -33 -95 -99 -106 -245 l-7 -87 -68 0 c-63 0 -69 -2
-69 -21 0 -19 5 -20 68 -18 l67 3 2 -340 c2 -192 -1 -345 -6 -353 -6 -9 -32
-16 -70 -19 -48 -3 -61 -8 -61 -21 0 -14 20 -16 170 -16 155 0 170 1 170 17 0
15 -9 18 -53 18 -97 0 -92 -21 -92 367 l0 338 73 3 c63 3 72 5 72 22 0 17 -9
19 -72 22 l-73 3 -3 41 c-4 58 23 179 49 215 25 35 63 53 96 44 22 -5 33 -35
13 -35 -17 0 -12 -77 6 -84 57 -22 92 12 80 78 -14 75 -105 109 -186 68z"/>
<path d="M2944 7066 c-10 -25 5 -36 47 -36 22 0 46 -6 53 -13 17 -17 38 -81
86 -272 23 -88 62 -236 87 -330 25 -93 62 -235 83 -314 35 -134 48 -160 76
-161 26 0 39 38 129 390 26 102 72 277 102 390 30 113 59 223 64 244 12 50 33
65 87 66 37 0 42 3 42 23 0 22 -1 22 -162 22 -90 0 -166 -4 -170 -9 -17 -24 6
-36 67 -36 66 0 75 -6 75 -53 0 -23 -6 -49 -120 -492 -126 -488 -116 -454
-125 -420 -166 633 -238 936 -226 948 6 6 38 14 69 17 49 4 57 8 57 25 0 21
-10 23 -120 15 -27 -2 -83 0 -122 4 -62 7 -74 6 -79 -8z"/>
<path d="M14840 7056 c0 -25 2 -26 59 -26 97 0 91 32 91 -515 0 -547 6 -515
-91 -515 -53 0 -59 -2 -59 -20 0 -30 25 -35 100 -22 50 8 90 8 159 0 76 -9 94
-9 101 2 17 27 -1 40 -54 40 -91 0 -91 0 -94 215 l-3 186 63 67 c35 37 85 89
110 117 26 27 49 47 52 45 2 -3 48 -95 101 -205 54 -110 117 -240 141 -289 63
-127 62 -132 -50 -138 -51 -3 -62 -12 -47 -37 8 -12 22 -13 95 -2 70 11 102
11 171 0 90 -13 114 -7 102 25 -5 11 -20 16 -51 16 -54 0 -87 14 -105 43 -35
54 -293 584 -305 624 -7 22 11 44 177 219 32 33 63 68 70 76 28 34 84 67 121
70 41 3 52 14 37 37 -7 11 -25 12 -92 5 -47 -5 -119 -5 -163 -1 -82 9 -104 2
-93 -27 5 -12 22 -16 72 -16 61 0 65 -1 65 -23 0 -13 -8 -32 -17 -43 -32 -36
-208 -229 -213 -234 -8 -8 -163 -181 -195 -217 -16 -18 -32 -33 -37 -33 -5 0
-8 115 -6 261 3 298 -3 280 98 289 47 4 55 8 55 25 0 21 1 21 -160 15 -33 -2
-93 0 -132 5 l-73 7 0 -26z"/>
<path d="M18013 7064 c-9 -24 7 -31 74 -36 35 -2 66 -8 70 -12 10 -10 10
-1002 1 -1012 -4 -4 -36 -10 -70 -13 -46 -4 -63 -10 -63 -20 0 -12 29 -15 173
-15 148 -1 172 1 170 14 -2 10 -21 17 -61 21 -32 4 -64 12 -70 18 -17 17 -22
403 -7 489 19 108 64 174 142 206 79 34 162 6 200 -67 22 -40 23 -54 26 -327
1 -165 -1 -291 -7 -299 -5 -8 -35 -16 -72 -20 -47 -4 -64 -10 -64 -21 0 -12
26 -15 167 -15 153 0 168 2 168 18 0 14 -9 17 -48 17 -90 0 -86 -12 -92 317
l-5 290 -30 58 c-38 74 -90 105 -174 105 -92 -1 -168 -49 -204 -129 -10 -21
-13 21 -17 209 l-5 235 -98 2 c-80 2 -99 -1 -104 -13z"/>
<path d="M16122 6968 c-7 -7 -12 -28 -12 -48 0 -41 14 -60 46 -60 39 0 53 11
60 45 9 47 -9 75 -49 75 -18 0 -38 -5 -45 -12z"/>
<path d="M13690 6857 c0 -104 -9 -119 -76 -121 -42 -1 -49 -4 -49 -21 0 -17 8
-21 55 -25 l55 -5 5 -310 c5 -300 6 -312 29 -358 27 -55 62 -77 121 -77 58 0
95 22 119 73 18 37 21 62 21 170 0 117 -1 127 -19 127 -16 0 -19 -12 -23 -123
-7 -144 -19 -179 -73 -197 -29 -10 -39 -9 -64 6 -17 10 -36 32 -42 48 -18 45
-25 611 -9 631 9 11 34 15 91 15 79 0 79 0 79 26 l0 27 -69 -7 c-100 -9 -101
-8 -101 83 0 95 -7 121 -31 121 -17 0 -19 -8 -19 -83z"/>
<path d="M16680 6857 c0 -105 -10 -120 -76 -121 -42 -1 -49 -4 -49 -21 0 -17
8 -21 55 -25 l55 -5 5 -310 c5 -295 6 -312 27 -355 28 -57 66 -80 130 -80 42
0 54 5 81 31 42 41 52 82 52 222 0 107 -2 117 -19 117 -16 0 -19 -12 -23 -123
-6 -139 -19 -177 -67 -196 -59 -25 -107 16 -121 105 -15 89 -13 567 2 582 7 7
43 12 90 12 78 0 78 0 78 26 l0 27 -80 -7 c-61 -5 -81 -3 -85 6 -2 7 -6 54 -9
103 -3 50 -5 91 -6 93 0 1 -9 2 -20 2 -18 0 -20 -7 -20 -83z"/>
<path d="M5270 6833 c-25 -22 -33 -39 -37 -76 -3 -26 -7 -47 -8 -47 -1 0 -24
12 -49 26 -39 22 -56 26 -102 22 -75 -6 -129 -46 -169 -123 -28 -54 -30 -67
-30 -161 0 -100 0 -103 -26 -118 -38 -22 -63 -80 -56 -129 7 -49 33 -86 75
-106 17 -9 31 -18 31 -21 0 -3 -17 -17 -39 -32 -22 -15 -52 -46 -67 -69 -23
-36 -27 -52 -27 -113 0 -124 62 -199 194 -232 73 -18 217 -15 283 7 49 16 113
72 137 120 29 56 28 171 -3 221 -49 81 -110 106 -287 120 -148 11 -207 29
-235 72 -22 34 -13 85 20 116 l25 24 32 -33 c118 -120 297 -85 363 72 29 70
29 122 -1 241 -24 101 -26 117 -14 145 25 61 85 77 110 30 9 -16 7 -19 -14
-19 -36 0 -53 -71 -20 -84 59 -23 100 16 91 86 -7 56 -34 80 -95 86 -44 4 -53
1 -82 -25z m-82 -150 c120 -91 92 -342 -44 -399 -77 -32 -149 -4 -194 76 -21
38 -25 57 -24 125 1 117 32 180 109 216 51 25 106 18 153 -18z m42 -628 c81
-28 120 -84 120 -170 0 -48 -25 -109 -56 -136 -53 -47 -106 -63 -204 -63 -115
0 -182 25 -234 86 -39 45 -48 88 -35 149 18 81 78 132 174 150 58 11 183 2
235 -16z"/>
<path d="M4119 6735 c-50 -26 -83 -64 -121 -140 -36 -70 -48 -139 -48 -263 0
-163 31 -254 112 -329 57 -51 103 -67 183 -60 77 6 142 46 186 115 52 82 66
187 25 187 -16 0 -22 -11 -31 -60 -21 -112 -63 -167 -148 -195 -79 -25 -188
24 -226 103 -29 60 -51 153 -51 214 l0 53 240 0 240 0 0 63 c0 119 -42 225
-114 289 -60 54 -169 64 -247 23z m157 -26 c82 -21 143 -118 147 -236 l2 -68
-213 -3 -214 -2 7 52 c17 125 80 225 160 253 49 17 55 18 111 4z"/>
<path d="M5815 6742 c-107 -50 -158 -192 -94 -260 41 -45 109 -17 109 45 0 37
-21 57 -55 51 -20 -4 -25 -1 -25 16 0 44 53 100 109 116 54 15 82 12 131 -12
63 -32 85 -75 85 -165 0 -65 -2 -73 -28 -97 -31 -29 -32 -29 -167 -51 -151
-25 -207 -78 -217 -209 -12 -142 70 -236 204 -236 94 1 159 42 211 135 10 18
11 15 12 -18 0 -45 22 -92 49 -107 35 -18 96 -12 118 13 31 33 55 184 37 231
-8 21 -40 21 -48 0 -3 -9 -6 -47 -6 -84 0 -72 -13 -115 -37 -124 -21 -9 -52
11 -57 37 -3 12 -7 146 -9 298 -3 276 -3 276 -30 330 -37 75 -78 100 -176 106
-60 3 -84 0 -116 -15z m265 -534 c-20 -131 -84 -212 -178 -225 -142 -19 -239
135 -169 267 30 56 74 79 186 94 48 7 105 22 127 33 l39 20 3 -60 c2 -33 -2
-91 -8 -129z"/>
<path d="M6828 6740 c-37 -20 -107 -96 -110 -121 -1 -8 -4 15 -7 51 l-6 65
-93 2 c-90 1 -93 0 -90 -20 3 -19 11 -23 57 -27 36 -4 58 -12 67 -25 11 -15
14 -79 14 -322 0 -287 -1 -304 -20 -323 -16 -16 -28 -18 -70 -13 l-52 6 4 -29
c3 -28 5 -29 48 -26 25 1 98 2 163 3 l117 1 0 25 c0 24 -2 25 -39 19 -56 -9
-89 9 -97 50 -3 19 -4 134 -2 256 4 205 6 227 26 273 29 63 56 93 107 116 77
35 159 16 201 -49 36 -53 46 -146 42 -390 -3 -219 -3 -224 -26 -242 -18 -15
-33 -18 -73 -13 -49 6 -51 5 -47 -18 3 -24 4 -24 168 -30 119 -5 167 -4 172 5
15 22 1 31 -56 36 -87 8 -86 5 -86 269 0 349 -23 430 -133 476 -50 21 -134 19
-179 -5z"/>
<path d="M9350 6753 c-95 -31 -162 -110 -201 -234 -27 -87 -27 -274 1 -353 52
-153 137 -226 261 -226 163 0 274 147 286 381 14 246 -110 440 -277 438 -30 0
-62 -3 -70 -6z m135 -52 c119 -54 184 -229 157 -426 -24 -184 -117 -295 -245
-295 -62 0 -135 58 -177 139 -44 87 -53 310 -16 411 55 151 171 221 281 171z"/>
<path d="M10268 6740 c-20 -11 -49 -37 -64 -57 -16 -21 -31 -42 -35 -46 -4 -5
-6 15 -5 45 l1 53 -95 0 c-88 0 -95 -1 -95 -20 0 -17 8 -20 59 -23 42 -2 64
-8 72 -20 10 -13 13 -88 14 -318 0 -288 -1 -302 -20 -327 -17 -21 -31 -27 -73
-29 -44 -3 -52 -6 -52 -23 0 -22 -3 -22 165 -15 41 2 96 0 123 -5 46 -7 47 -7
47 19 0 24 -3 26 -48 26 -88 0 -87 -3 -90 247 -2 131 1 244 8 283 15 88 51
147 103 171 84 38 152 16 197 -63 25 -42 25 -48 28 -308 3 -236 2 -269 -14
-297 -16 -31 -21 -33 -71 -33 -51 0 -53 -1 -53 -26 l0 -26 58 8 c71 11 162 11
224 0 41 -8 49 -6 54 9 11 27 -20 44 -65 38 -31 -4 -43 -1 -61 17 -22 22 -22
24 -17 259 6 284 13 316 76 381 66 69 151 80 212 27 50 -42 59 -103 59 -381 0
-304 1 -300 -88 -304 -54 -3 -62 -5 -62 -23 0 -28 22 -33 91 -20 47 10 82 10
156 0 77 -9 97 -9 103 1 17 27 -1 40 -55 40 -57 0 -81 14 -90 53 -2 12 -6 144
-8 292 -4 289 -8 319 -56 364 -54 51 -159 67 -227 35 -40 -19 -102 -87 -110
-121 -9 -34 -17 -28 -32 19 -14 45 -57 93 -98 108 -42 16 -126 11 -166 -10z"/>
<path d="M12123 6739 c-118 -58 -186 -204 -186 -399 -1 -171 56 -302 157 -365
44 -27 58 -30 130 -30 85 0 116 13 172 70 124 126 151 403 57 588 -33 66 -102
133 -150 146 -61 17 -133 13 -180 -10z m152 -30 c78 -21 145 -112 175 -239 16
-65 7 -227 -15 -291 -70 -196 -234 -258 -352 -132 -70 75 -87 133 -87 298 0
122 2 147 22 197 29 72 94 145 147 163 49 17 60 18 110 4z"/>
<path d="M13082 6740 c-39 -24 -81 -69 -82 -87 0 -7 -4 -13 -10 -13 -5 0 -10
23 -10 50 l0 50 -94 0 c-72 0 -95 -3 -99 -14 -9 -24 18 -37 73 -35 35 2 55 -2
61 -12 5 -8 9 -156 9 -330 0 -363 4 -349 -87 -349 -50 0 -65 -10 -56 -36 2 -7
61 -10 171 -9 157 2 167 3 167 21 0 16 -9 20 -57 24 -31 3 -60 8 -64 12 -23
24 -32 298 -14 467 15 142 62 218 146 235 63 14 129 -40 135 -109 4 -56 1 -64
-32 -67 -41 -4 -56 -28 -43 -65 11 -31 49 -42 84 -23 53 28 63 151 20 229 -43
75 -147 104 -218 61z"/>
<path d="M17434 6735 c-177 -90 -239 -455 -112 -664 64 -106 181 -154 296
-122 77 23 157 121 162 201 5 58 1 70 -19 70 -14 0 -21 -9 -26 -32 -22 -118
-46 -156 -119 -189 -50 -23 -79 -24 -139 -3 -55 19 -99 65 -136 144 -24 51
-26 65 -26 190 0 163 23 251 81 313 107 113 254 96 309 -36 8 -20 15 -52 15
-70 0 -33 -1 -34 -37 -33 -37 1 -38 0 -41 -37 -4 -47 11 -67 50 -67 47 0 65
16 78 69 21 89 -12 184 -87 248 -57 49 -171 57 -249 18z"/>
<path d="M19220 6733 c-61 -32 -104 -87 -141 -181 -20 -50 -23 -75 -23 -212
-1 -139 1 -161 22 -211 91 -226 339 -256 463 -56 26 43 32 63 33 112 1 53 -1
60 -18 60 -16 0 -22 -11 -31 -60 -20 -110 -55 -158 -133 -188 -57 -22 -93 -21
-148 4 -81 39 -130 134 -141 280 l-6 79 239 2 239 3 3 55 c6 98 -27 202 -85
265 -43 48 -84 68 -152 72 -58 4 -73 1 -121 -24z m180 -35 c78 -40 138 -162
128 -260 l-3 -33 -212 -3 c-172 -2 -213 0 -213 11 0 36 24 135 40 168 63 122
162 167 260 117z"/>
<path d="M20170 6738 c-27 -14 -59 -43 -80 -71 l-35 -47 -5 57 -5 58 -93 1
c-89 1 -93 0 -90 -20 3 -18 12 -22 57 -26 36 -4 58 -12 67 -25 11 -15 14 -79
14 -326 0 -307 0 -308 -22 -323 -17 -12 -35 -14 -71 -10 l-49 7 4 -29 c3 -27
6 -29 43 -27 22 2 94 4 160 5 66 2 121 6 123 11 10 31 1 37 -52 34 -35 -1 -60
3 -68 11 -10 10 -13 70 -13 255 0 277 6 313 67 381 32 37 48 47 94 57 90 20
149 -8 188 -91 19 -42 21 -62 21 -313 0 -268 0 -269 -23 -287 -18 -15 -33 -18
-73 -13 -49 6 -51 5 -47 -18 3 -24 4 -24 168 -30 91 -4 169 -3 174 1 5 5 6 16
3 24 -5 12 -20 16 -54 16 -28 0 -58 7 -71 16 -22 15 -22 19 -22 234 0 342 -18
424 -107 481 -60 38 -137 40 -203 7z"/>
<path d="M16000 6714 c0 -23 3 -24 58 -24 96 0 92 15 92 -353 0 -315 0 -316
-22 -331 -14 -10 -44 -16 -75 -16 -44 0 -53 -3 -53 -17 0 -16 15 -18 170 -18
146 0 170 2 168 15 -2 10 -20 17 -55 20 -29 3 -58 11 -65 18 -10 10 -14 100
-18 370 l-5 357 -97 2 c-98 2 -98 2 -98 -23z"/>
</g>
</svg>
